<mxfile host="app.diagrams.net" agent="Mozilla/5.0 (Windows NT 10.0; Win64; x64; rv:144.0) Gecko/20100101 Firefox/144.0" version="28.2.7">
  <diagram name="Page-1" id="LXGx91UN10P6GlVMGsaX">
    <mxGraphModel dx="920" dy="503" grid="1" gridSize="10" guides="1" tooltips="1" connect="1" arrows="1" fold="1" page="1" pageScale="1" pageWidth="827" pageHeight="1169" math="0" shadow="0">
      <root>
        <mxCell id="0" />
        <mxCell id="1" parent="0" />
        <mxCell id="x99MnezzHazOgLGOoJsA-1" style="edgeStyle=orthogonalEdgeStyle;rounded=0;orthogonalLoop=1;jettySize=auto;html=1;exitX=0.5;exitY=1;exitDx=0;exitDy=0;entryX=0.5;entryY=0;entryDx=0;entryDy=0;" parent="1" source="x99MnezzHazOgLGOoJsA-2" target="x99MnezzHazOgLGOoJsA-14" edge="1">
          <mxGeometry relative="1" as="geometry" />
        </mxCell>
        <mxCell id="x99MnezzHazOgLGOoJsA-2" value="&lt;div&gt;APLIKACJA MOBILNA / WWW&lt;/div&gt;" style="rounded=0;whiteSpace=wrap;html=1;" parent="1" vertex="1">
          <mxGeometry x="595" y="210" width="180" height="30" as="geometry" />
        </mxCell>
        <mxCell id="x99MnezzHazOgLGOoJsA-3" style="edgeStyle=orthogonalEdgeStyle;rounded=0;orthogonalLoop=1;jettySize=auto;html=1;exitX=0.5;exitY=1;exitDx=0;exitDy=0;entryX=0.5;entryY=0;entryDx=0;entryDy=0;endArrow=none;endFill=0;" parent="1" source="x99MnezzHazOgLGOoJsA-4" target="x99MnezzHazOgLGOoJsA-6" edge="1">
          <mxGeometry relative="1" as="geometry" />
        </mxCell>
        <mxCell id="x99MnezzHazOgLGOoJsA-4" value="&lt;div&gt;CENTRALNY KONTROLER (HUB)&lt;/div&gt;" style="rounded=0;whiteSpace=wrap;html=1;" parent="1" vertex="1">
          <mxGeometry x="380" y="300" width="200" height="30" as="geometry" />
        </mxCell>
        <mxCell id="x99MnezzHazOgLGOoJsA-5" value="&lt;div&gt;INTELIGENTNY TERMOSTAT&lt;/div&gt;" style="rounded=0;whiteSpace=wrap;html=1;" parent="1" vertex="1">
          <mxGeometry x="750" y="380" width="175" height="30" as="geometry" />
        </mxCell>
        <mxCell id="x99MnezzHazOgLGOoJsA-6" value="&lt;div&gt;SYSTEM ALARMOWY&lt;/div&gt;" style="rounded=0;whiteSpace=wrap;html=1;" parent="1" vertex="1">
          <mxGeometry x="470" y="390" width="132.5" height="30" as="geometry" />
        </mxCell>
        <mxCell id="x99MnezzHazOgLGOoJsA-7" value="&lt;div&gt;KAMERA IP&lt;/div&gt;" style="rounded=0;whiteSpace=wrap;html=1;" parent="1" vertex="1">
          <mxGeometry x="470" y="440" width="80" height="30" as="geometry" />
        </mxCell>
        <mxCell id="x99MnezzHazOgLGOoJsA-8" style="edgeStyle=orthogonalEdgeStyle;rounded=0;orthogonalLoop=1;jettySize=auto;html=1;exitX=0.5;exitY=1;exitDx=0;exitDy=0;entryX=1;entryY=0.5;entryDx=0;entryDy=0;endArrow=none;endFill=0;" parent="1" source="x99MnezzHazOgLGOoJsA-14" target="x99MnezzHazOgLGOoJsA-7" edge="1">
          <mxGeometry relative="1" as="geometry" />
        </mxCell>
        <mxCell id="x99MnezzHazOgLGOoJsA-9" style="edgeStyle=orthogonalEdgeStyle;rounded=0;orthogonalLoop=1;jettySize=auto;html=1;exitX=0.5;exitY=1;exitDx=0;exitDy=0;entryX=1;entryY=0.5;entryDx=0;entryDy=0;endArrow=none;endFill=0;" parent="1" source="x99MnezzHazOgLGOoJsA-14" target="x99MnezzHazOgLGOoJsA-6" edge="1">
          <mxGeometry relative="1" as="geometry" />
        </mxCell>
        <mxCell id="x99MnezzHazOgLGOoJsA-10" style="edgeStyle=orthogonalEdgeStyle;rounded=0;orthogonalLoop=1;jettySize=auto;html=1;exitX=0.5;exitY=1;exitDx=0;exitDy=0;entryX=1;entryY=0.5;entryDx=0;entryDy=0;endArrow=none;endFill=0;" parent="1" source="x99MnezzHazOgLGOoJsA-14" target="x99MnezzHazOgLGOoJsA-20" edge="1">
          <mxGeometry relative="1" as="geometry" />
        </mxCell>
        <mxCell id="x99MnezzHazOgLGOoJsA-11" style="edgeStyle=orthogonalEdgeStyle;rounded=0;orthogonalLoop=1;jettySize=auto;html=1;exitX=0.5;exitY=1;exitDx=0;exitDy=0;entryX=0;entryY=0.5;entryDx=0;entryDy=0;endArrow=none;endFill=0;" parent="1" source="x99MnezzHazOgLGOoJsA-14" target="x99MnezzHazOgLGOoJsA-5" edge="1">
          <mxGeometry relative="1" as="geometry" />
        </mxCell>
        <mxCell id="x99MnezzHazOgLGOoJsA-12" style="edgeStyle=orthogonalEdgeStyle;rounded=0;orthogonalLoop=1;jettySize=auto;html=1;exitX=0.5;exitY=1;exitDx=0;exitDy=0;entryX=0;entryY=0.5;entryDx=0;entryDy=0;endArrow=none;endFill=0;" parent="1" source="x99MnezzHazOgLGOoJsA-14" target="x99MnezzHazOgLGOoJsA-19" edge="1">
          <mxGeometry relative="1" as="geometry" />
        </mxCell>
        <mxCell id="x99MnezzHazOgLGOoJsA-13" style="edgeStyle=orthogonalEdgeStyle;rounded=0;orthogonalLoop=1;jettySize=auto;html=1;exitX=0;exitY=0.5;exitDx=0;exitDy=0;entryX=1;entryY=0.5;entryDx=0;entryDy=0;endArrow=none;endFill=0;" parent="1" source="x99MnezzHazOgLGOoJsA-14" target="x99MnezzHazOgLGOoJsA-4" edge="1">
          <mxGeometry relative="1" as="geometry" />
        </mxCell>
        <mxCell id="x99MnezzHazOgLGOoJsA-14" value="&lt;div&gt;ROUTER WI-FI&lt;/div&gt;" style="rounded=0;whiteSpace=wrap;html=1;" parent="1" vertex="1">
          <mxGeometry x="635" y="300" width="100" height="30" as="geometry" />
        </mxCell>
        <mxCell id="x99MnezzHazOgLGOoJsA-15" style="edgeStyle=orthogonalEdgeStyle;rounded=0;orthogonalLoop=1;jettySize=auto;html=1;exitX=1;exitY=0.5;exitDx=0;exitDy=0;entryX=0;entryY=0.5;entryDx=0;entryDy=0;" parent="1" source="x99MnezzHazOgLGOoJsA-18" target="x99MnezzHazOgLGOoJsA-7" edge="1">
          <mxGeometry relative="1" as="geometry" />
        </mxCell>
        <mxCell id="x99MnezzHazOgLGOoJsA-16" style="edgeStyle=orthogonalEdgeStyle;rounded=0;orthogonalLoop=1;jettySize=auto;html=1;exitX=1;exitY=0.5;exitDx=0;exitDy=0;entryX=0;entryY=0.5;entryDx=0;entryDy=0;" parent="1" source="x99MnezzHazOgLGOoJsA-18" target="x99MnezzHazOgLGOoJsA-6" edge="1">
          <mxGeometry relative="1" as="geometry" />
        </mxCell>
        <mxCell id="x99MnezzHazOgLGOoJsA-17" style="edgeStyle=orthogonalEdgeStyle;rounded=0;orthogonalLoop=1;jettySize=auto;html=1;exitX=1;exitY=0.5;exitDx=0;exitDy=0;entryX=0;entryY=0.5;entryDx=0;entryDy=0;" parent="1" source="x99MnezzHazOgLGOoJsA-18" target="x99MnezzHazOgLGOoJsA-20" edge="1">
          <mxGeometry relative="1" as="geometry" />
        </mxCell>
        <mxCell id="x99MnezzHazOgLGOoJsA-18" value="&lt;div&gt;CZUJNIK RUCHU&lt;/div&gt;" style="rounded=0;whiteSpace=wrap;html=1;" parent="1" vertex="1">
          <mxGeometry x="300" y="440" width="110" height="30" as="geometry" />
        </mxCell>
        <mxCell id="x99MnezzHazOgLGOoJsA-19" value="&lt;div&gt;INTELIGENTNY ZAMEK DRZWI&lt;/div&gt;" style="rounded=0;whiteSpace=wrap;html=1;" parent="1" vertex="1">
          <mxGeometry x="750" y="450" width="180" height="30" as="geometry" />
        </mxCell>
        <mxCell id="x99MnezzHazOgLGOoJsA-20" value="&lt;div&gt;INTELIGENTNA ŻARÓWKA LED&lt;/div&gt;" style="rounded=0;whiteSpace=wrap;html=1;" parent="1" vertex="1">
          <mxGeometry x="470" y="490" width="190" height="30" as="geometry" />
        </mxCell>
        <mxCell id="x99MnezzHazOgLGOoJsA-21" style="edgeStyle=orthogonalEdgeStyle;rounded=0;orthogonalLoop=1;jettySize=auto;html=1;entryX=0;entryY=0.5;entryDx=0;entryDy=0;" parent="1" source="x99MnezzHazOgLGOoJsA-22" target="x99MnezzHazOgLGOoJsA-2" edge="1">
          <mxGeometry relative="1" as="geometry" />
        </mxCell>
        <mxCell id="x99MnezzHazOgLGOoJsA-22" value="&lt;div&gt;Użytkownik&lt;/div&gt;" style="shape=umlActor;verticalLabelPosition=bottom;verticalAlign=top;html=1;outlineConnect=0;" parent="1" vertex="1">
          <mxGeometry x="490" y="195" width="30" height="60" as="geometry" />
        </mxCell>
        <mxCell id="x99MnezzHazOgLGOoJsA-23" value="INTERNET" style="ellipse;shape=cloud;whiteSpace=wrap;html=1;" parent="1" vertex="1">
          <mxGeometry x="790" y="195" width="120" height="80" as="geometry" />
        </mxCell>
        <mxCell id="x99MnezzHazOgLGOoJsA-24" style="edgeStyle=orthogonalEdgeStyle;rounded=0;orthogonalLoop=1;jettySize=auto;html=1;exitX=1;exitY=0.5;exitDx=0;exitDy=0;entryX=0.55;entryY=0.95;entryDx=0;entryDy=0;entryPerimeter=0;endArrow=none;endFill=0;" parent="1" source="x99MnezzHazOgLGOoJsA-14" target="x99MnezzHazOgLGOoJsA-23" edge="1">
          <mxGeometry relative="1" as="geometry" />
        </mxCell>
        <mxCell id="x99MnezzHazOgLGOoJsA-25" value="&lt;font style=&quot;font-size: 18px;&quot;&gt;&lt;b&gt;SCHEMAT FUNKCJONALNY SYSTEMU&lt;/b&gt;&lt;/font&gt;" style="text;html=1;whiteSpace=wrap;strokeColor=none;fillColor=none;align=center;verticalAlign=middle;rounded=0;" parent="1" vertex="1">
          <mxGeometry x="460" y="120" width="360" height="30" as="geometry" />
        </mxCell>
        <mxCell id="x99MnezzHazOgLGOoJsA-26" value="&lt;font style=&quot;font-size: 18px;&quot;&gt;&lt;b&gt;SCHEMAT NIEZAWODNOŚCIOWY SYSTEMU&lt;/b&gt;&lt;/font&gt;" style="text;html=1;whiteSpace=wrap;strokeColor=none;fillColor=none;align=center;verticalAlign=middle;rounded=0;" parent="1" vertex="1">
          <mxGeometry x="1060" y="120" width="420" height="30" as="geometry" />
        </mxCell>
        <mxCell id="x99MnezzHazOgLGOoJsA-82" style="edgeStyle=orthogonalEdgeStyle;rounded=0;orthogonalLoop=1;jettySize=auto;html=1;exitX=1;exitY=0.5;exitDx=0;exitDy=0;entryX=0;entryY=0.5;entryDx=0;entryDy=0;" parent="1" source="x99MnezzHazOgLGOoJsA-72" target="x99MnezzHazOgLGOoJsA-73" edge="1">
          <mxGeometry relative="1" as="geometry" />
        </mxCell>
        <mxCell id="x99MnezzHazOgLGOoJsA-72" value="1" style="rounded=0;whiteSpace=wrap;html=1;strokeColor=none;fillColor=default;" parent="1" vertex="1">
          <mxGeometry x="1040" y="225" width="20" height="20" as="geometry" />
        </mxCell>
        <mxCell id="x99MnezzHazOgLGOoJsA-83" style="edgeStyle=orthogonalEdgeStyle;rounded=0;orthogonalLoop=1;jettySize=auto;html=1;exitX=1;exitY=0.5;exitDx=0;exitDy=0;entryX=0;entryY=0.5;entryDx=0;entryDy=0;" parent="1" source="x99MnezzHazOgLGOoJsA-73" target="x99MnezzHazOgLGOoJsA-74" edge="1">
          <mxGeometry relative="1" as="geometry" />
        </mxCell>
        <mxCell id="x99MnezzHazOgLGOoJsA-73" value="1" style="rounded=0;whiteSpace=wrap;html=1;" parent="1" vertex="1">
          <mxGeometry x="1090" y="225" width="20" height="20" as="geometry" />
        </mxCell>
        <mxCell id="x99MnezzHazOgLGOoJsA-74" value="2" style="rounded=0;whiteSpace=wrap;html=1;" parent="1" vertex="1">
          <mxGeometry x="1140" y="225" width="20" height="20" as="geometry" />
        </mxCell>
        <mxCell id="x99MnezzHazOgLGOoJsA-85" style="edgeStyle=orthogonalEdgeStyle;rounded=0;orthogonalLoop=1;jettySize=auto;html=1;exitX=1;exitY=0.5;exitDx=0;exitDy=0;entryX=0;entryY=0.5;entryDx=0;entryDy=0;" parent="1" source="x99MnezzHazOgLGOoJsA-74" target="x99MnezzHazOgLGOoJsA-76" edge="1">
          <mxGeometry relative="1" as="geometry">
            <mxPoint x="1210" y="235" as="sourcePoint" />
            <Array as="points">
              <mxPoint x="1190" y="235" />
              <mxPoint x="1190" y="205" />
            </Array>
          </mxGeometry>
        </mxCell>
        <mxCell id="x99MnezzHazOgLGOoJsA-86" style="edgeStyle=orthogonalEdgeStyle;rounded=0;orthogonalLoop=1;jettySize=auto;html=1;exitX=1;exitY=0.5;exitDx=0;exitDy=0;entryX=0;entryY=0.5;entryDx=0;entryDy=0;" parent="1" source="x99MnezzHazOgLGOoJsA-74" target="x99MnezzHazOgLGOoJsA-77" edge="1">
          <mxGeometry relative="1" as="geometry">
            <mxPoint x="1210" y="235" as="sourcePoint" />
            <Array as="points">
              <mxPoint x="1190" y="235" />
              <mxPoint x="1190" y="270" />
            </Array>
          </mxGeometry>
        </mxCell>
        <mxCell id="x99MnezzHazOgLGOoJsA-87" style="edgeStyle=orthogonalEdgeStyle;rounded=0;orthogonalLoop=1;jettySize=auto;html=1;exitX=1;exitY=0.5;exitDx=0;exitDy=0;entryX=0;entryY=0.5;entryDx=0;entryDy=0;" parent="1" source="x99MnezzHazOgLGOoJsA-76" target="x99MnezzHazOgLGOoJsA-78" edge="1">
          <mxGeometry relative="1" as="geometry">
            <Array as="points">
              <mxPoint x="1260" y="205" />
              <mxPoint x="1260" y="235" />
            </Array>
          </mxGeometry>
        </mxCell>
        <mxCell id="x99MnezzHazOgLGOoJsA-76" value="3" style="rounded=0;whiteSpace=wrap;html=1;" parent="1" vertex="1">
          <mxGeometry x="1210" y="195" width="20" height="20" as="geometry" />
        </mxCell>
        <mxCell id="x99MnezzHazOgLGOoJsA-88" style="edgeStyle=orthogonalEdgeStyle;rounded=0;orthogonalLoop=1;jettySize=auto;html=1;exitX=1;exitY=0.5;exitDx=0;exitDy=0;" parent="1" source="x99MnezzHazOgLGOoJsA-77" edge="1">
          <mxGeometry relative="1" as="geometry">
            <mxPoint x="1280" y="235" as="targetPoint" />
            <Array as="points">
              <mxPoint x="1260" y="270" />
              <mxPoint x="1260" y="235" />
            </Array>
          </mxGeometry>
        </mxCell>
        <mxCell id="x99MnezzHazOgLGOoJsA-77" value="4" style="rounded=0;whiteSpace=wrap;html=1;" parent="1" vertex="1">
          <mxGeometry x="1210" y="260" width="20" height="20" as="geometry" />
        </mxCell>
        <mxCell id="x99MnezzHazOgLGOoJsA-89" style="edgeStyle=orthogonalEdgeStyle;rounded=0;orthogonalLoop=1;jettySize=auto;html=1;exitX=1;exitY=0.5;exitDx=0;exitDy=0;entryX=0;entryY=0.5;entryDx=0;entryDy=0;" parent="1" source="x99MnezzHazOgLGOoJsA-78" target="x99MnezzHazOgLGOoJsA-79" edge="1">
          <mxGeometry relative="1" as="geometry" />
        </mxCell>
        <mxCell id="x99MnezzHazOgLGOoJsA-78" value="5" style="rounded=0;whiteSpace=wrap;html=1;" parent="1" vertex="1">
          <mxGeometry x="1280" y="225" width="20" height="20" as="geometry" />
        </mxCell>
        <mxCell id="x99MnezzHazOgLGOoJsA-90" style="edgeStyle=orthogonalEdgeStyle;rounded=0;orthogonalLoop=1;jettySize=auto;html=1;exitX=1;exitY=0.5;exitDx=0;exitDy=0;entryX=0;entryY=0.5;entryDx=0;entryDy=0;" parent="1" source="x99MnezzHazOgLGOoJsA-79" target="x99MnezzHazOgLGOoJsA-80" edge="1">
          <mxGeometry relative="1" as="geometry" />
        </mxCell>
        <mxCell id="x99MnezzHazOgLGOoJsA-79" value="6" style="rounded=0;whiteSpace=wrap;html=1;" parent="1" vertex="1">
          <mxGeometry x="1330" y="225" width="20" height="20" as="geometry" />
        </mxCell>
        <mxCell id="x99MnezzHazOgLGOoJsA-91" style="edgeStyle=orthogonalEdgeStyle;rounded=0;orthogonalLoop=1;jettySize=auto;html=1;exitX=1;exitY=0.5;exitDx=0;exitDy=0;entryX=0;entryY=0.5;entryDx=0;entryDy=0;" parent="1" source="x99MnezzHazOgLGOoJsA-80" target="x99MnezzHazOgLGOoJsA-93" edge="1">
          <mxGeometry relative="1" as="geometry">
            <mxPoint x="1430" y="235" as="targetPoint" />
          </mxGeometry>
        </mxCell>
        <mxCell id="x99MnezzHazOgLGOoJsA-80" value="7" style="rounded=0;whiteSpace=wrap;html=1;" parent="1" vertex="1">
          <mxGeometry x="1380" y="225" width="20" height="20" as="geometry" />
        </mxCell>
        <mxCell id="x99MnezzHazOgLGOoJsA-92" value="1" style="rounded=0;whiteSpace=wrap;html=1;strokeColor=none;fillColor=default;" parent="1" vertex="1">
          <mxGeometry x="1480" y="225" width="20" height="20" as="geometry" />
        </mxCell>
        <mxCell id="x99MnezzHazOgLGOoJsA-95" style="edgeStyle=orthogonalEdgeStyle;rounded=0;orthogonalLoop=1;jettySize=auto;html=1;exitX=1;exitY=0.5;exitDx=0;exitDy=0;entryX=0;entryY=0.5;entryDx=0;entryDy=0;" parent="1" source="x99MnezzHazOgLGOoJsA-93" target="x99MnezzHazOgLGOoJsA-92" edge="1">
          <mxGeometry relative="1" as="geometry" />
        </mxCell>
        <mxCell id="x99MnezzHazOgLGOoJsA-93" value="8" style="rounded=0;whiteSpace=wrap;html=1;" parent="1" vertex="1">
          <mxGeometry x="1430" y="225" width="20" height="20" as="geometry" />
        </mxCell>
        <mxCell id="Rtv8AEi2oojKbHXFzOrV-1" style="edgeStyle=orthogonalEdgeStyle;rounded=0;orthogonalLoop=1;jettySize=auto;html=1;exitX=1;exitY=0.5;exitDx=0;exitDy=0;entryX=0;entryY=0.5;entryDx=0;entryDy=0;" edge="1" parent="1" source="Rtv8AEi2oojKbHXFzOrV-2" target="Rtv8AEi2oojKbHXFzOrV-4">
          <mxGeometry relative="1" as="geometry" />
        </mxCell>
        <mxCell id="Rtv8AEi2oojKbHXFzOrV-2" value="1" style="rounded=0;whiteSpace=wrap;html=1;strokeColor=none;fillColor=default;" vertex="1" parent="1">
          <mxGeometry x="1020" y="360" width="20" height="20" as="geometry" />
        </mxCell>
        <mxCell id="Rtv8AEi2oojKbHXFzOrV-3" style="edgeStyle=orthogonalEdgeStyle;rounded=0;orthogonalLoop=1;jettySize=auto;html=1;exitX=1;exitY=0.5;exitDx=0;exitDy=0;entryX=0;entryY=0.5;entryDx=0;entryDy=0;" edge="1" parent="1" source="Rtv8AEi2oojKbHXFzOrV-4" target="Rtv8AEi2oojKbHXFzOrV-5">
          <mxGeometry relative="1" as="geometry" />
        </mxCell>
        <mxCell id="Rtv8AEi2oojKbHXFzOrV-4" value="1" style="rounded=0;whiteSpace=wrap;html=1;" vertex="1" parent="1">
          <mxGeometry x="1080" y="360" width="20" height="20" as="geometry" />
        </mxCell>
        <mxCell id="Rtv8AEi2oojKbHXFzOrV-5" value="2" style="rounded=0;whiteSpace=wrap;html=1;" vertex="1" parent="1">
          <mxGeometry x="1140" y="360" width="20" height="20" as="geometry" />
        </mxCell>
        <mxCell id="Rtv8AEi2oojKbHXFzOrV-6" style="edgeStyle=orthogonalEdgeStyle;rounded=0;orthogonalLoop=1;jettySize=auto;html=1;exitX=1;exitY=0.5;exitDx=0;exitDy=0;entryX=0;entryY=0.5;entryDx=0;entryDy=0;" edge="1" parent="1" source="Rtv8AEi2oojKbHXFzOrV-5" target="Rtv8AEi2oojKbHXFzOrV-9">
          <mxGeometry relative="1" as="geometry">
            <mxPoint x="1210" y="370" as="sourcePoint" />
            <Array as="points">
              <mxPoint x="1190" y="370" />
              <mxPoint x="1190" y="340" />
            </Array>
          </mxGeometry>
        </mxCell>
        <mxCell id="Rtv8AEi2oojKbHXFzOrV-7" style="edgeStyle=orthogonalEdgeStyle;rounded=0;orthogonalLoop=1;jettySize=auto;html=1;exitX=1;exitY=0.5;exitDx=0;exitDy=0;entryX=0;entryY=0.5;entryDx=0;entryDy=0;" edge="1" parent="1" source="Rtv8AEi2oojKbHXFzOrV-5" target="Rtv8AEi2oojKbHXFzOrV-11">
          <mxGeometry relative="1" as="geometry">
            <mxPoint x="1210" y="370" as="sourcePoint" />
            <Array as="points">
              <mxPoint x="1190" y="370" />
              <mxPoint x="1190" y="405" />
            </Array>
          </mxGeometry>
        </mxCell>
        <mxCell id="Rtv8AEi2oojKbHXFzOrV-8" style="edgeStyle=orthogonalEdgeStyle;rounded=0;orthogonalLoop=1;jettySize=auto;html=1;exitX=1;exitY=0.5;exitDx=0;exitDy=0;entryX=0;entryY=0.5;entryDx=0;entryDy=0;" edge="1" parent="1" source="Rtv8AEi2oojKbHXFzOrV-9" target="Rtv8AEi2oojKbHXFzOrV-13">
          <mxGeometry relative="1" as="geometry">
            <Array as="points">
              <mxPoint x="1260" y="340" />
              <mxPoint x="1260" y="370" />
            </Array>
          </mxGeometry>
        </mxCell>
        <mxCell id="Rtv8AEi2oojKbHXFzOrV-9" value="3" style="rounded=0;whiteSpace=wrap;html=1;" vertex="1" parent="1">
          <mxGeometry x="1210" y="330" width="20" height="20" as="geometry" />
        </mxCell>
        <mxCell id="Rtv8AEi2oojKbHXFzOrV-10" style="edgeStyle=orthogonalEdgeStyle;rounded=0;orthogonalLoop=1;jettySize=auto;html=1;exitX=1;exitY=0.5;exitDx=0;exitDy=0;" edge="1" parent="1" source="Rtv8AEi2oojKbHXFzOrV-11">
          <mxGeometry relative="1" as="geometry">
            <mxPoint x="1280" y="370" as="targetPoint" />
            <Array as="points">
              <mxPoint x="1260" y="405" />
              <mxPoint x="1260" y="370" />
            </Array>
          </mxGeometry>
        </mxCell>
        <mxCell id="Rtv8AEi2oojKbHXFzOrV-11" value="4" style="rounded=0;whiteSpace=wrap;html=1;" vertex="1" parent="1">
          <mxGeometry x="1210" y="395" width="20" height="20" as="geometry" />
        </mxCell>
        <mxCell id="Rtv8AEi2oojKbHXFzOrV-12" style="edgeStyle=orthogonalEdgeStyle;rounded=0;orthogonalLoop=1;jettySize=auto;html=1;exitX=1;exitY=0.5;exitDx=0;exitDy=0;entryX=0;entryY=0.5;entryDx=0;entryDy=0;" edge="1" parent="1" source="Rtv8AEi2oojKbHXFzOrV-13" target="Rtv8AEi2oojKbHXFzOrV-15">
          <mxGeometry relative="1" as="geometry" />
        </mxCell>
        <mxCell id="Rtv8AEi2oojKbHXFzOrV-13" value="5" style="rounded=0;whiteSpace=wrap;html=1;" vertex="1" parent="1">
          <mxGeometry x="1280" y="360" width="20" height="20" as="geometry" />
        </mxCell>
        <mxCell id="Rtv8AEi2oojKbHXFzOrV-14" style="edgeStyle=orthogonalEdgeStyle;rounded=0;orthogonalLoop=1;jettySize=auto;html=1;exitX=1;exitY=0.5;exitDx=0;exitDy=0;entryX=0;entryY=0.5;entryDx=0;entryDy=0;" edge="1" parent="1" source="Rtv8AEi2oojKbHXFzOrV-15" target="Rtv8AEi2oojKbHXFzOrV-17">
          <mxGeometry relative="1" as="geometry" />
        </mxCell>
        <mxCell id="Rtv8AEi2oojKbHXFzOrV-15" value="6" style="rounded=0;whiteSpace=wrap;html=1;" vertex="1" parent="1">
          <mxGeometry x="1330" y="360" width="20" height="20" as="geometry" />
        </mxCell>
        <mxCell id="Rtv8AEi2oojKbHXFzOrV-16" style="edgeStyle=orthogonalEdgeStyle;rounded=0;orthogonalLoop=1;jettySize=auto;html=1;exitX=1;exitY=0.5;exitDx=0;exitDy=0;entryX=0;entryY=0.5;entryDx=0;entryDy=0;" edge="1" parent="1" source="Rtv8AEi2oojKbHXFzOrV-17" target="Rtv8AEi2oojKbHXFzOrV-20">
          <mxGeometry relative="1" as="geometry">
            <mxPoint x="1430" y="370" as="targetPoint" />
          </mxGeometry>
        </mxCell>
        <mxCell id="Rtv8AEi2oojKbHXFzOrV-17" value="7" style="rounded=0;whiteSpace=wrap;html=1;" vertex="1" parent="1">
          <mxGeometry x="1380" y="360" width="20" height="20" as="geometry" />
        </mxCell>
        <mxCell id="Rtv8AEi2oojKbHXFzOrV-18" value="1" style="rounded=0;whiteSpace=wrap;html=1;strokeColor=none;fillColor=default;" vertex="1" parent="1">
          <mxGeometry x="1480" y="360" width="20" height="20" as="geometry" />
        </mxCell>
        <mxCell id="Rtv8AEi2oojKbHXFzOrV-19" style="edgeStyle=orthogonalEdgeStyle;rounded=0;orthogonalLoop=1;jettySize=auto;html=1;exitX=1;exitY=0.5;exitDx=0;exitDy=0;entryX=0;entryY=0.5;entryDx=0;entryDy=0;" edge="1" parent="1" source="Rtv8AEi2oojKbHXFzOrV-20" target="Rtv8AEi2oojKbHXFzOrV-18">
          <mxGeometry relative="1" as="geometry" />
        </mxCell>
        <mxCell id="Rtv8AEi2oojKbHXFzOrV-20" value="8" style="rounded=0;whiteSpace=wrap;html=1;" vertex="1" parent="1">
          <mxGeometry x="1430" y="360" width="20" height="20" as="geometry" />
        </mxCell>
        <mxCell id="Rtv8AEi2oojKbHXFzOrV-23" style="edgeStyle=orthogonalEdgeStyle;rounded=0;orthogonalLoop=1;jettySize=auto;html=1;exitX=0;exitY=0.5;exitDx=0;exitDy=0;entryX=0;entryY=0.5;entryDx=0;entryDy=0;strokeColor=default;dashed=1;" edge="1" parent="1" target="Rtv8AEi2oojKbHXFzOrV-21">
          <mxGeometry relative="1" as="geometry">
            <mxPoint x="1060" y="370" as="sourcePoint" />
            <Array as="points">
              <mxPoint x="1060" y="420" />
            </Array>
          </mxGeometry>
        </mxCell>
        <mxCell id="Rtv8AEi2oojKbHXFzOrV-24" style="edgeStyle=orthogonalEdgeStyle;rounded=0;orthogonalLoop=1;jettySize=auto;html=1;exitX=1;exitY=0.5;exitDx=0;exitDy=0;dashed=1;" edge="1" parent="1" source="Rtv8AEi2oojKbHXFzOrV-21">
          <mxGeometry relative="1" as="geometry">
            <mxPoint x="1120" y="370" as="targetPoint" />
            <Array as="points">
              <mxPoint x="1120" y="420" />
            </Array>
          </mxGeometry>
        </mxCell>
        <mxCell id="Rtv8AEi2oojKbHXFzOrV-21" value="9" style="rounded=0;whiteSpace=wrap;html=1;" vertex="1" parent="1">
          <mxGeometry x="1080" y="410" width="20" height="20" as="geometry" />
        </mxCell>
        <mxCell id="Rtv8AEi2oojKbHXFzOrV-48" style="edgeStyle=orthogonalEdgeStyle;rounded=0;orthogonalLoop=1;jettySize=auto;html=1;exitX=1;exitY=0.5;exitDx=0;exitDy=0;entryX=0;entryY=0.5;entryDx=0;entryDy=0;" edge="1" parent="1" source="Rtv8AEi2oojKbHXFzOrV-49" target="Rtv8AEi2oojKbHXFzOrV-51">
          <mxGeometry relative="1" as="geometry" />
        </mxCell>
        <mxCell id="Rtv8AEi2oojKbHXFzOrV-49" value="1" style="rounded=0;whiteSpace=wrap;html=1;strokeColor=none;fillColor=default;" vertex="1" parent="1">
          <mxGeometry x="1030" y="480" width="20" height="20" as="geometry" />
        </mxCell>
        <mxCell id="Rtv8AEi2oojKbHXFzOrV-50" style="edgeStyle=orthogonalEdgeStyle;rounded=0;orthogonalLoop=1;jettySize=auto;html=1;exitX=1;exitY=0.5;exitDx=0;exitDy=0;entryX=0;entryY=0.5;entryDx=0;entryDy=0;" edge="1" parent="1" source="Rtv8AEi2oojKbHXFzOrV-51" target="Rtv8AEi2oojKbHXFzOrV-52">
          <mxGeometry relative="1" as="geometry" />
        </mxCell>
        <mxCell id="Rtv8AEi2oojKbHXFzOrV-51" value="1" style="rounded=0;whiteSpace=wrap;html=1;" vertex="1" parent="1">
          <mxGeometry x="1080" y="480" width="20" height="20" as="geometry" />
        </mxCell>
        <mxCell id="Rtv8AEi2oojKbHXFzOrV-52" value="2" style="rounded=0;whiteSpace=wrap;html=1;" vertex="1" parent="1">
          <mxGeometry x="1140" y="480" width="20" height="20" as="geometry" />
        </mxCell>
        <mxCell id="Rtv8AEi2oojKbHXFzOrV-53" style="edgeStyle=orthogonalEdgeStyle;rounded=0;orthogonalLoop=1;jettySize=auto;html=1;exitX=1;exitY=0.5;exitDx=0;exitDy=0;entryX=0;entryY=0.5;entryDx=0;entryDy=0;" edge="1" parent="1" source="Rtv8AEi2oojKbHXFzOrV-52" target="Rtv8AEi2oojKbHXFzOrV-56">
          <mxGeometry relative="1" as="geometry">
            <mxPoint x="1210" y="490" as="sourcePoint" />
            <Array as="points">
              <mxPoint x="1200" y="490" />
              <mxPoint x="1200" y="460" />
            </Array>
          </mxGeometry>
        </mxCell>
        <mxCell id="Rtv8AEi2oojKbHXFzOrV-54" style="edgeStyle=orthogonalEdgeStyle;rounded=0;orthogonalLoop=1;jettySize=auto;html=1;exitX=1;exitY=0.5;exitDx=0;exitDy=0;entryX=0;entryY=0.5;entryDx=0;entryDy=0;" edge="1" parent="1" source="Rtv8AEi2oojKbHXFzOrV-52" target="Rtv8AEi2oojKbHXFzOrV-58">
          <mxGeometry relative="1" as="geometry">
            <mxPoint x="1210" y="490" as="sourcePoint" />
            <Array as="points">
              <mxPoint x="1200" y="490" />
              <mxPoint x="1200" y="525" />
            </Array>
          </mxGeometry>
        </mxCell>
        <mxCell id="Rtv8AEi2oojKbHXFzOrV-55" style="edgeStyle=orthogonalEdgeStyle;rounded=0;orthogonalLoop=1;jettySize=auto;html=1;exitX=1;exitY=0.5;exitDx=0;exitDy=0;entryX=0;entryY=0.5;entryDx=0;entryDy=0;" edge="1" parent="1" source="Rtv8AEi2oojKbHXFzOrV-56" target="Rtv8AEi2oojKbHXFzOrV-60">
          <mxGeometry relative="1" as="geometry">
            <Array as="points">
              <mxPoint x="1270" y="460" />
              <mxPoint x="1270" y="490" />
            </Array>
          </mxGeometry>
        </mxCell>
        <mxCell id="Rtv8AEi2oojKbHXFzOrV-56" value="3" style="rounded=0;whiteSpace=wrap;html=1;" vertex="1" parent="1">
          <mxGeometry x="1220" y="450" width="20" height="20" as="geometry" />
        </mxCell>
        <mxCell id="Rtv8AEi2oojKbHXFzOrV-57" style="edgeStyle=orthogonalEdgeStyle;rounded=0;orthogonalLoop=1;jettySize=auto;html=1;exitX=1;exitY=0.5;exitDx=0;exitDy=0;" edge="1" parent="1" source="Rtv8AEi2oojKbHXFzOrV-58">
          <mxGeometry relative="1" as="geometry">
            <mxPoint x="1290" y="490" as="targetPoint" />
            <Array as="points">
              <mxPoint x="1270" y="525" />
              <mxPoint x="1270" y="490" />
            </Array>
          </mxGeometry>
        </mxCell>
        <mxCell id="Rtv8AEi2oojKbHXFzOrV-58" value="4" style="rounded=0;whiteSpace=wrap;html=1;" vertex="1" parent="1">
          <mxGeometry x="1220" y="515" width="20" height="20" as="geometry" />
        </mxCell>
        <mxCell id="Rtv8AEi2oojKbHXFzOrV-59" style="edgeStyle=orthogonalEdgeStyle;rounded=0;orthogonalLoop=1;jettySize=auto;html=1;exitX=1;exitY=0.5;exitDx=0;exitDy=0;entryX=0;entryY=0.5;entryDx=0;entryDy=0;" edge="1" parent="1" source="Rtv8AEi2oojKbHXFzOrV-60" target="Rtv8AEi2oojKbHXFzOrV-62">
          <mxGeometry relative="1" as="geometry" />
        </mxCell>
        <mxCell id="Rtv8AEi2oojKbHXFzOrV-60" value="5" style="rounded=0;whiteSpace=wrap;html=1;" vertex="1" parent="1">
          <mxGeometry x="1290" y="480" width="20" height="20" as="geometry" />
        </mxCell>
        <mxCell id="Rtv8AEi2oojKbHXFzOrV-61" style="edgeStyle=orthogonalEdgeStyle;rounded=0;orthogonalLoop=1;jettySize=auto;html=1;exitX=1;exitY=0.5;exitDx=0;exitDy=0;entryX=0;entryY=0.5;entryDx=0;entryDy=0;" edge="1" parent="1" source="Rtv8AEi2oojKbHXFzOrV-62" target="Rtv8AEi2oojKbHXFzOrV-64">
          <mxGeometry relative="1" as="geometry" />
        </mxCell>
        <mxCell id="Rtv8AEi2oojKbHXFzOrV-62" value="6" style="rounded=0;whiteSpace=wrap;html=1;" vertex="1" parent="1">
          <mxGeometry x="1340" y="480" width="20" height="20" as="geometry" />
        </mxCell>
        <mxCell id="Rtv8AEi2oojKbHXFzOrV-63" style="edgeStyle=orthogonalEdgeStyle;rounded=0;orthogonalLoop=1;jettySize=auto;html=1;exitX=1;exitY=0.5;exitDx=0;exitDy=0;entryX=0;entryY=0.5;entryDx=0;entryDy=0;" edge="1" parent="1" source="Rtv8AEi2oojKbHXFzOrV-64" target="Rtv8AEi2oojKbHXFzOrV-67">
          <mxGeometry relative="1" as="geometry">
            <mxPoint x="1440" y="490" as="targetPoint" />
          </mxGeometry>
        </mxCell>
        <mxCell id="Rtv8AEi2oojKbHXFzOrV-64" value="7" style="rounded=0;whiteSpace=wrap;html=1;" vertex="1" parent="1">
          <mxGeometry x="1390" y="480" width="20" height="20" as="geometry" />
        </mxCell>
        <mxCell id="Rtv8AEi2oojKbHXFzOrV-65" value="1" style="rounded=0;whiteSpace=wrap;html=1;strokeColor=none;fillColor=default;" vertex="1" parent="1">
          <mxGeometry x="1490" y="480" width="20" height="20" as="geometry" />
        </mxCell>
        <mxCell id="Rtv8AEi2oojKbHXFzOrV-66" style="edgeStyle=orthogonalEdgeStyle;rounded=0;orthogonalLoop=1;jettySize=auto;html=1;exitX=1;exitY=0.5;exitDx=0;exitDy=0;entryX=0;entryY=0.5;entryDx=0;entryDy=0;" edge="1" parent="1" source="Rtv8AEi2oojKbHXFzOrV-67" target="Rtv8AEi2oojKbHXFzOrV-65">
          <mxGeometry relative="1" as="geometry" />
        </mxCell>
        <mxCell id="Rtv8AEi2oojKbHXFzOrV-67" value="8" style="rounded=0;whiteSpace=wrap;html=1;" vertex="1" parent="1">
          <mxGeometry x="1440" y="480" width="20" height="20" as="geometry" />
        </mxCell>
        <mxCell id="Rtv8AEi2oojKbHXFzOrV-68" style="edgeStyle=orthogonalEdgeStyle;rounded=0;orthogonalLoop=1;jettySize=auto;html=1;exitX=0;exitY=0.5;exitDx=0;exitDy=0;entryX=0;entryY=0.5;entryDx=0;entryDy=0;strokeColor=default;dashed=1;" edge="1" parent="1" target="Rtv8AEi2oojKbHXFzOrV-70">
          <mxGeometry relative="1" as="geometry">
            <mxPoint x="1120" y="490" as="sourcePoint" />
            <Array as="points">
              <mxPoint x="1120" y="540" />
            </Array>
          </mxGeometry>
        </mxCell>
        <mxCell id="Rtv8AEi2oojKbHXFzOrV-69" style="edgeStyle=orthogonalEdgeStyle;rounded=0;orthogonalLoop=1;jettySize=auto;html=1;exitX=1;exitY=0.5;exitDx=0;exitDy=0;dashed=1;" edge="1" parent="1" source="Rtv8AEi2oojKbHXFzOrV-70">
          <mxGeometry relative="1" as="geometry">
            <mxPoint x="1180" y="490" as="targetPoint" />
            <Array as="points">
              <mxPoint x="1180" y="540" />
            </Array>
          </mxGeometry>
        </mxCell>
        <mxCell id="Rtv8AEi2oojKbHXFzOrV-70" value="9" style="rounded=0;whiteSpace=wrap;html=1;" vertex="1" parent="1">
          <mxGeometry x="1140" y="530" width="20" height="20" as="geometry" />
        </mxCell>
        <mxCell id="Rtv8AEi2oojKbHXFzOrV-71" style="edgeStyle=orthogonalEdgeStyle;rounded=0;orthogonalLoop=1;jettySize=auto;html=1;exitX=1;exitY=0.5;exitDx=0;exitDy=0;entryX=0;entryY=0.5;entryDx=0;entryDy=0;" edge="1" parent="1" source="Rtv8AEi2oojKbHXFzOrV-72" target="Rtv8AEi2oojKbHXFzOrV-74">
          <mxGeometry relative="1" as="geometry" />
        </mxCell>
        <mxCell id="Rtv8AEi2oojKbHXFzOrV-72" value="1" style="rounded=0;whiteSpace=wrap;html=1;strokeColor=none;fillColor=default;" vertex="1" parent="1">
          <mxGeometry x="1020" y="590" width="20" height="20" as="geometry" />
        </mxCell>
        <mxCell id="Rtv8AEi2oojKbHXFzOrV-73" style="edgeStyle=orthogonalEdgeStyle;rounded=0;orthogonalLoop=1;jettySize=auto;html=1;exitX=1;exitY=0.5;exitDx=0;exitDy=0;entryX=0;entryY=0.5;entryDx=0;entryDy=0;" edge="1" parent="1" source="Rtv8AEi2oojKbHXFzOrV-74" target="Rtv8AEi2oojKbHXFzOrV-75">
          <mxGeometry relative="1" as="geometry" />
        </mxCell>
        <mxCell id="Rtv8AEi2oojKbHXFzOrV-74" value="1" style="rounded=0;whiteSpace=wrap;html=1;" vertex="1" parent="1">
          <mxGeometry x="1070" y="590" width="20" height="20" as="geometry" />
        </mxCell>
        <mxCell id="Rtv8AEi2oojKbHXFzOrV-75" value="2" style="rounded=0;whiteSpace=wrap;html=1;" vertex="1" parent="1">
          <mxGeometry x="1130" y="590" width="20" height="20" as="geometry" />
        </mxCell>
        <mxCell id="Rtv8AEi2oojKbHXFzOrV-76" style="edgeStyle=orthogonalEdgeStyle;rounded=0;orthogonalLoop=1;jettySize=auto;html=1;exitX=1;exitY=0.5;exitDx=0;exitDy=0;entryX=0;entryY=0.5;entryDx=0;entryDy=0;" edge="1" parent="1" source="Rtv8AEi2oojKbHXFzOrV-75" target="Rtv8AEi2oojKbHXFzOrV-79">
          <mxGeometry relative="1" as="geometry">
            <mxPoint x="1200" y="600" as="sourcePoint" />
            <Array as="points">
              <mxPoint x="1190" y="600" />
              <mxPoint x="1190" y="570" />
            </Array>
          </mxGeometry>
        </mxCell>
        <mxCell id="Rtv8AEi2oojKbHXFzOrV-77" style="edgeStyle=orthogonalEdgeStyle;rounded=0;orthogonalLoop=1;jettySize=auto;html=1;exitX=1;exitY=0.5;exitDx=0;exitDy=0;entryX=0;entryY=0.5;entryDx=0;entryDy=0;" edge="1" parent="1" source="Rtv8AEi2oojKbHXFzOrV-75" target="Rtv8AEi2oojKbHXFzOrV-81">
          <mxGeometry relative="1" as="geometry">
            <mxPoint x="1200" y="600" as="sourcePoint" />
            <Array as="points">
              <mxPoint x="1190" y="600" />
              <mxPoint x="1190" y="630" />
            </Array>
          </mxGeometry>
        </mxCell>
        <mxCell id="Rtv8AEi2oojKbHXFzOrV-78" style="edgeStyle=orthogonalEdgeStyle;rounded=0;orthogonalLoop=1;jettySize=auto;html=1;exitX=1;exitY=0.5;exitDx=0;exitDy=0;entryX=0;entryY=0.5;entryDx=0;entryDy=0;" edge="1" parent="1" source="Rtv8AEi2oojKbHXFzOrV-79" target="Rtv8AEi2oojKbHXFzOrV-83">
          <mxGeometry relative="1" as="geometry">
            <Array as="points">
              <mxPoint x="1260" y="570" />
              <mxPoint x="1260" y="600" />
            </Array>
          </mxGeometry>
        </mxCell>
        <mxCell id="Rtv8AEi2oojKbHXFzOrV-79" value="3" style="rounded=0;whiteSpace=wrap;html=1;" vertex="1" parent="1">
          <mxGeometry x="1210" y="560" width="20" height="20" as="geometry" />
        </mxCell>
        <mxCell id="Rtv8AEi2oojKbHXFzOrV-80" style="edgeStyle=orthogonalEdgeStyle;rounded=0;orthogonalLoop=1;jettySize=auto;html=1;exitX=1;exitY=0.5;exitDx=0;exitDy=0;" edge="1" parent="1" source="Rtv8AEi2oojKbHXFzOrV-81">
          <mxGeometry relative="1" as="geometry">
            <mxPoint x="1280" y="600" as="targetPoint" />
            <Array as="points">
              <mxPoint x="1260" y="630" />
              <mxPoint x="1260" y="600" />
            </Array>
          </mxGeometry>
        </mxCell>
        <mxCell id="Rtv8AEi2oojKbHXFzOrV-81" value="4" style="rounded=0;whiteSpace=wrap;html=1;" vertex="1" parent="1">
          <mxGeometry x="1210" y="620" width="20" height="20" as="geometry" />
        </mxCell>
        <mxCell id="Rtv8AEi2oojKbHXFzOrV-82" style="edgeStyle=orthogonalEdgeStyle;rounded=0;orthogonalLoop=1;jettySize=auto;html=1;exitX=1;exitY=0.5;exitDx=0;exitDy=0;entryX=0;entryY=0.5;entryDx=0;entryDy=0;" edge="1" parent="1" source="Rtv8AEi2oojKbHXFzOrV-83" target="Rtv8AEi2oojKbHXFzOrV-85">
          <mxGeometry relative="1" as="geometry" />
        </mxCell>
        <mxCell id="Rtv8AEi2oojKbHXFzOrV-83" value="5" style="rounded=0;whiteSpace=wrap;html=1;" vertex="1" parent="1">
          <mxGeometry x="1280" y="590" width="20" height="20" as="geometry" />
        </mxCell>
        <mxCell id="Rtv8AEi2oojKbHXFzOrV-84" style="edgeStyle=orthogonalEdgeStyle;rounded=0;orthogonalLoop=1;jettySize=auto;html=1;exitX=1;exitY=0.5;exitDx=0;exitDy=0;entryX=0;entryY=0.5;entryDx=0;entryDy=0;" edge="1" parent="1" source="Rtv8AEi2oojKbHXFzOrV-85" target="Rtv8AEi2oojKbHXFzOrV-87">
          <mxGeometry relative="1" as="geometry" />
        </mxCell>
        <mxCell id="Rtv8AEi2oojKbHXFzOrV-85" value="6" style="rounded=0;whiteSpace=wrap;html=1;" vertex="1" parent="1">
          <mxGeometry x="1330" y="590" width="20" height="20" as="geometry" />
        </mxCell>
        <mxCell id="Rtv8AEi2oojKbHXFzOrV-86" style="edgeStyle=orthogonalEdgeStyle;rounded=0;orthogonalLoop=1;jettySize=auto;html=1;exitX=1;exitY=0.5;exitDx=0;exitDy=0;entryX=0;entryY=0.5;entryDx=0;entryDy=0;" edge="1" parent="1" source="Rtv8AEi2oojKbHXFzOrV-87" target="Rtv8AEi2oojKbHXFzOrV-90">
          <mxGeometry relative="1" as="geometry">
            <mxPoint x="1430" y="600" as="targetPoint" />
          </mxGeometry>
        </mxCell>
        <mxCell id="Rtv8AEi2oojKbHXFzOrV-87" value="7" style="rounded=0;whiteSpace=wrap;html=1;" vertex="1" parent="1">
          <mxGeometry x="1380" y="590" width="20" height="20" as="geometry" />
        </mxCell>
        <mxCell id="Rtv8AEi2oojKbHXFzOrV-88" value="1" style="rounded=0;whiteSpace=wrap;html=1;strokeColor=none;fillColor=default;" vertex="1" parent="1">
          <mxGeometry x="1480" y="590" width="20" height="20" as="geometry" />
        </mxCell>
        <mxCell id="Rtv8AEi2oojKbHXFzOrV-89" style="edgeStyle=orthogonalEdgeStyle;rounded=0;orthogonalLoop=1;jettySize=auto;html=1;exitX=1;exitY=0.5;exitDx=0;exitDy=0;entryX=0;entryY=0.5;entryDx=0;entryDy=0;" edge="1" parent="1" source="Rtv8AEi2oojKbHXFzOrV-90" target="Rtv8AEi2oojKbHXFzOrV-88">
          <mxGeometry relative="1" as="geometry" />
        </mxCell>
        <mxCell id="Rtv8AEi2oojKbHXFzOrV-90" value="8" style="rounded=0;whiteSpace=wrap;html=1;" vertex="1" parent="1">
          <mxGeometry x="1430" y="590" width="20" height="20" as="geometry" />
        </mxCell>
        <mxCell id="Rtv8AEi2oojKbHXFzOrV-91" style="edgeStyle=orthogonalEdgeStyle;rounded=0;orthogonalLoop=1;jettySize=auto;html=1;entryX=0;entryY=0.5;entryDx=0;entryDy=0;strokeColor=default;dashed=1;" edge="1" parent="1" target="Rtv8AEi2oojKbHXFzOrV-93">
          <mxGeometry relative="1" as="geometry">
            <mxPoint x="1190" y="630" as="sourcePoint" />
            <Array as="points">
              <mxPoint x="1190" y="680" />
            </Array>
          </mxGeometry>
        </mxCell>
        <mxCell id="Rtv8AEi2oojKbHXFzOrV-92" style="edgeStyle=orthogonalEdgeStyle;rounded=0;orthogonalLoop=1;jettySize=auto;html=1;exitX=1;exitY=0.5;exitDx=0;exitDy=0;dashed=1;startArrow=none;startFill=0;endArrow=none;endFill=0;" edge="1" parent="1" source="Rtv8AEi2oojKbHXFzOrV-93">
          <mxGeometry relative="1" as="geometry">
            <mxPoint x="1260" y="630" as="targetPoint" />
            <Array as="points">
              <mxPoint x="1260" y="680" />
            </Array>
          </mxGeometry>
        </mxCell>
        <mxCell id="Rtv8AEi2oojKbHXFzOrV-93" value="9" style="rounded=0;whiteSpace=wrap;html=1;" vertex="1" parent="1">
          <mxGeometry x="1210" y="670" width="20" height="20" as="geometry" />
        </mxCell>
        <mxCell id="Rtv8AEi2oojKbHXFzOrV-94" style="edgeStyle=orthogonalEdgeStyle;rounded=0;orthogonalLoop=1;jettySize=auto;html=1;exitX=1;exitY=0.5;exitDx=0;exitDy=0;entryX=0;entryY=0.5;entryDx=0;entryDy=0;" edge="1" parent="1" source="Rtv8AEi2oojKbHXFzOrV-95" target="Rtv8AEi2oojKbHXFzOrV-97">
          <mxGeometry relative="1" as="geometry" />
        </mxCell>
        <mxCell id="Rtv8AEi2oojKbHXFzOrV-95" value="1" style="rounded=0;whiteSpace=wrap;html=1;strokeColor=none;fillColor=default;" vertex="1" parent="1">
          <mxGeometry x="1050" y="750" width="20" height="20" as="geometry" />
        </mxCell>
        <mxCell id="Rtv8AEi2oojKbHXFzOrV-96" style="edgeStyle=orthogonalEdgeStyle;rounded=0;orthogonalLoop=1;jettySize=auto;html=1;exitX=1;exitY=0.5;exitDx=0;exitDy=0;entryX=0;entryY=0.5;entryDx=0;entryDy=0;" edge="1" parent="1" source="Rtv8AEi2oojKbHXFzOrV-97" target="Rtv8AEi2oojKbHXFzOrV-98">
          <mxGeometry relative="1" as="geometry" />
        </mxCell>
        <mxCell id="Rtv8AEi2oojKbHXFzOrV-97" value="1" style="rounded=0;whiteSpace=wrap;html=1;" vertex="1" parent="1">
          <mxGeometry x="1100" y="750" width="20" height="20" as="geometry" />
        </mxCell>
        <mxCell id="Rtv8AEi2oojKbHXFzOrV-98" value="2" style="rounded=0;whiteSpace=wrap;html=1;" vertex="1" parent="1">
          <mxGeometry x="1150" y="750" width="20" height="20" as="geometry" />
        </mxCell>
        <mxCell id="Rtv8AEi2oojKbHXFzOrV-99" style="edgeStyle=orthogonalEdgeStyle;rounded=0;orthogonalLoop=1;jettySize=auto;html=1;exitX=1;exitY=0.5;exitDx=0;exitDy=0;entryX=0;entryY=0.5;entryDx=0;entryDy=0;" edge="1" parent="1" source="Rtv8AEi2oojKbHXFzOrV-98" target="Rtv8AEi2oojKbHXFzOrV-102">
          <mxGeometry relative="1" as="geometry">
            <mxPoint x="1220" y="760" as="sourcePoint" />
            <Array as="points">
              <mxPoint x="1200" y="760" />
              <mxPoint x="1200" y="730" />
            </Array>
          </mxGeometry>
        </mxCell>
        <mxCell id="Rtv8AEi2oojKbHXFzOrV-100" style="edgeStyle=orthogonalEdgeStyle;rounded=0;orthogonalLoop=1;jettySize=auto;html=1;exitX=1;exitY=0.5;exitDx=0;exitDy=0;entryX=0;entryY=0.5;entryDx=0;entryDy=0;" edge="1" parent="1" source="Rtv8AEi2oojKbHXFzOrV-98" target="Rtv8AEi2oojKbHXFzOrV-104">
          <mxGeometry relative="1" as="geometry">
            <mxPoint x="1220" y="760" as="sourcePoint" />
            <Array as="points">
              <mxPoint x="1200" y="760" />
              <mxPoint x="1200" y="795" />
            </Array>
          </mxGeometry>
        </mxCell>
        <mxCell id="Rtv8AEi2oojKbHXFzOrV-101" style="edgeStyle=orthogonalEdgeStyle;rounded=0;orthogonalLoop=1;jettySize=auto;html=1;exitX=1;exitY=0.5;exitDx=0;exitDy=0;entryX=0;entryY=0.5;entryDx=0;entryDy=0;" edge="1" parent="1" source="Rtv8AEi2oojKbHXFzOrV-102" target="Rtv8AEi2oojKbHXFzOrV-106">
          <mxGeometry relative="1" as="geometry">
            <Array as="points">
              <mxPoint x="1270" y="730" />
              <mxPoint x="1270" y="760" />
            </Array>
          </mxGeometry>
        </mxCell>
        <mxCell id="Rtv8AEi2oojKbHXFzOrV-102" value="3" style="rounded=0;whiteSpace=wrap;html=1;" vertex="1" parent="1">
          <mxGeometry x="1220" y="720" width="20" height="20" as="geometry" />
        </mxCell>
        <mxCell id="Rtv8AEi2oojKbHXFzOrV-103" style="edgeStyle=orthogonalEdgeStyle;rounded=0;orthogonalLoop=1;jettySize=auto;html=1;exitX=1;exitY=0.5;exitDx=0;exitDy=0;entryX=0;entryY=0.5;entryDx=0;entryDy=0;" edge="1" parent="1" source="Rtv8AEi2oojKbHXFzOrV-104" target="Rtv8AEi2oojKbHXFzOrV-106">
          <mxGeometry relative="1" as="geometry">
            <mxPoint x="1290" y="760" as="targetPoint" />
            <Array as="points">
              <mxPoint x="1270" y="795" />
              <mxPoint x="1270" y="760" />
            </Array>
          </mxGeometry>
        </mxCell>
        <mxCell id="Rtv8AEi2oojKbHXFzOrV-104" value="4" style="rounded=0;whiteSpace=wrap;html=1;" vertex="1" parent="1">
          <mxGeometry x="1220" y="785" width="20" height="20" as="geometry" />
        </mxCell>
        <mxCell id="Rtv8AEi2oojKbHXFzOrV-105" style="edgeStyle=orthogonalEdgeStyle;rounded=0;orthogonalLoop=1;jettySize=auto;html=1;exitX=1;exitY=0.5;exitDx=0;exitDy=0;entryX=0;entryY=0.5;entryDx=0;entryDy=0;" edge="1" parent="1" source="Rtv8AEi2oojKbHXFzOrV-106" target="Rtv8AEi2oojKbHXFzOrV-108">
          <mxGeometry relative="1" as="geometry" />
        </mxCell>
        <mxCell id="Rtv8AEi2oojKbHXFzOrV-106" value="5" style="rounded=0;whiteSpace=wrap;html=1;" vertex="1" parent="1">
          <mxGeometry x="1310" y="750" width="20" height="20" as="geometry" />
        </mxCell>
        <mxCell id="Rtv8AEi2oojKbHXFzOrV-107" style="edgeStyle=orthogonalEdgeStyle;rounded=0;orthogonalLoop=1;jettySize=auto;html=1;exitX=1;exitY=0.5;exitDx=0;exitDy=0;entryX=0;entryY=0.5;entryDx=0;entryDy=0;" edge="1" parent="1" source="Rtv8AEi2oojKbHXFzOrV-108" target="Rtv8AEi2oojKbHXFzOrV-110">
          <mxGeometry relative="1" as="geometry" />
        </mxCell>
        <mxCell id="Rtv8AEi2oojKbHXFzOrV-108" value="6" style="rounded=0;whiteSpace=wrap;html=1;" vertex="1" parent="1">
          <mxGeometry x="1370" y="750" width="20" height="20" as="geometry" />
        </mxCell>
        <mxCell id="Rtv8AEi2oojKbHXFzOrV-109" style="edgeStyle=orthogonalEdgeStyle;rounded=0;orthogonalLoop=1;jettySize=auto;html=1;exitX=1;exitY=0.5;exitDx=0;exitDy=0;entryX=0;entryY=0.5;entryDx=0;entryDy=0;" edge="1" parent="1" source="Rtv8AEi2oojKbHXFzOrV-110" target="Rtv8AEi2oojKbHXFzOrV-113">
          <mxGeometry relative="1" as="geometry">
            <mxPoint x="1465" y="760" as="targetPoint" />
          </mxGeometry>
        </mxCell>
        <mxCell id="Rtv8AEi2oojKbHXFzOrV-110" value="7" style="rounded=0;whiteSpace=wrap;html=1;" vertex="1" parent="1">
          <mxGeometry x="1420" y="750" width="20" height="20" as="geometry" />
        </mxCell>
        <mxCell id="Rtv8AEi2oojKbHXFzOrV-111" value="1" style="rounded=0;whiteSpace=wrap;html=1;strokeColor=none;fillColor=default;" vertex="1" parent="1">
          <mxGeometry x="1520" y="750" width="20" height="20" as="geometry" />
        </mxCell>
        <mxCell id="Rtv8AEi2oojKbHXFzOrV-112" style="edgeStyle=orthogonalEdgeStyle;rounded=0;orthogonalLoop=1;jettySize=auto;html=1;exitX=1;exitY=0.5;exitDx=0;exitDy=0;entryX=0;entryY=0.5;entryDx=0;entryDy=0;" edge="1" parent="1" source="Rtv8AEi2oojKbHXFzOrV-113" target="Rtv8AEi2oojKbHXFzOrV-111">
          <mxGeometry relative="1" as="geometry" />
        </mxCell>
        <mxCell id="Rtv8AEi2oojKbHXFzOrV-113" value="8" style="rounded=0;whiteSpace=wrap;html=1;" vertex="1" parent="1">
          <mxGeometry x="1470" y="750" width="20" height="20" as="geometry" />
        </mxCell>
        <mxCell id="Rtv8AEi2oojKbHXFzOrV-114" style="edgeStyle=orthogonalEdgeStyle;rounded=0;orthogonalLoop=1;jettySize=auto;html=1;exitX=0;exitY=0.5;exitDx=0;exitDy=0;entryX=0;entryY=0.5;entryDx=0;entryDy=0;strokeColor=default;dashed=1;" edge="1" parent="1" target="Rtv8AEi2oojKbHXFzOrV-116">
          <mxGeometry relative="1" as="geometry">
            <mxPoint x="1290" y="760" as="sourcePoint" />
            <Array as="points">
              <mxPoint x="1290" y="810" />
            </Array>
          </mxGeometry>
        </mxCell>
        <mxCell id="Rtv8AEi2oojKbHXFzOrV-115" style="edgeStyle=orthogonalEdgeStyle;rounded=0;orthogonalLoop=1;jettySize=auto;html=1;exitX=1;exitY=0.5;exitDx=0;exitDy=0;dashed=1;" edge="1" parent="1" source="Rtv8AEi2oojKbHXFzOrV-116">
          <mxGeometry relative="1" as="geometry">
            <mxPoint x="1350" y="760" as="targetPoint" />
            <Array as="points">
              <mxPoint x="1350" y="810" />
            </Array>
          </mxGeometry>
        </mxCell>
        <mxCell id="Rtv8AEi2oojKbHXFzOrV-116" value="9" style="rounded=0;whiteSpace=wrap;html=1;" vertex="1" parent="1">
          <mxGeometry x="1310" y="800" width="20" height="20" as="geometry" />
        </mxCell>
        <mxCell id="Rtv8AEi2oojKbHXFzOrV-117" style="edgeStyle=orthogonalEdgeStyle;rounded=0;orthogonalLoop=1;jettySize=auto;html=1;exitX=1;exitY=0.5;exitDx=0;exitDy=0;entryX=0;entryY=0.5;entryDx=0;entryDy=0;" edge="1" parent="1" source="Rtv8AEi2oojKbHXFzOrV-118" target="Rtv8AEi2oojKbHXFzOrV-120">
          <mxGeometry relative="1" as="geometry" />
        </mxCell>
        <mxCell id="Rtv8AEi2oojKbHXFzOrV-118" value="1" style="rounded=0;whiteSpace=wrap;html=1;strokeColor=none;fillColor=default;" vertex="1" parent="1">
          <mxGeometry x="1050" y="880" width="20" height="20" as="geometry" />
        </mxCell>
        <mxCell id="Rtv8AEi2oojKbHXFzOrV-119" style="edgeStyle=orthogonalEdgeStyle;rounded=0;orthogonalLoop=1;jettySize=auto;html=1;exitX=1;exitY=0.5;exitDx=0;exitDy=0;entryX=0;entryY=0.5;entryDx=0;entryDy=0;" edge="1" parent="1" source="Rtv8AEi2oojKbHXFzOrV-120" target="Rtv8AEi2oojKbHXFzOrV-121">
          <mxGeometry relative="1" as="geometry" />
        </mxCell>
        <mxCell id="Rtv8AEi2oojKbHXFzOrV-120" value="1" style="rounded=0;whiteSpace=wrap;html=1;" vertex="1" parent="1">
          <mxGeometry x="1100" y="880" width="20" height="20" as="geometry" />
        </mxCell>
        <mxCell id="Rtv8AEi2oojKbHXFzOrV-121" value="2" style="rounded=0;whiteSpace=wrap;html=1;" vertex="1" parent="1">
          <mxGeometry x="1150" y="880" width="20" height="20" as="geometry" />
        </mxCell>
        <mxCell id="Rtv8AEi2oojKbHXFzOrV-122" style="edgeStyle=orthogonalEdgeStyle;rounded=0;orthogonalLoop=1;jettySize=auto;html=1;exitX=1;exitY=0.5;exitDx=0;exitDy=0;entryX=0;entryY=0.5;entryDx=0;entryDy=0;" edge="1" parent="1" source="Rtv8AEi2oojKbHXFzOrV-121" target="Rtv8AEi2oojKbHXFzOrV-125">
          <mxGeometry relative="1" as="geometry">
            <mxPoint x="1220" y="890" as="sourcePoint" />
            <Array as="points">
              <mxPoint x="1200" y="890" />
              <mxPoint x="1200" y="860" />
            </Array>
          </mxGeometry>
        </mxCell>
        <mxCell id="Rtv8AEi2oojKbHXFzOrV-123" style="edgeStyle=orthogonalEdgeStyle;rounded=0;orthogonalLoop=1;jettySize=auto;html=1;exitX=1;exitY=0.5;exitDx=0;exitDy=0;entryX=0;entryY=0.5;entryDx=0;entryDy=0;" edge="1" parent="1" source="Rtv8AEi2oojKbHXFzOrV-121" target="Rtv8AEi2oojKbHXFzOrV-127">
          <mxGeometry relative="1" as="geometry">
            <mxPoint x="1220" y="890" as="sourcePoint" />
            <Array as="points">
              <mxPoint x="1200" y="890" />
              <mxPoint x="1200" y="925" />
            </Array>
          </mxGeometry>
        </mxCell>
        <mxCell id="Rtv8AEi2oojKbHXFzOrV-124" style="edgeStyle=orthogonalEdgeStyle;rounded=0;orthogonalLoop=1;jettySize=auto;html=1;exitX=1;exitY=0.5;exitDx=0;exitDy=0;entryX=0;entryY=0.5;entryDx=0;entryDy=0;" edge="1" parent="1" source="Rtv8AEi2oojKbHXFzOrV-125" target="Rtv8AEi2oojKbHXFzOrV-129">
          <mxGeometry relative="1" as="geometry">
            <Array as="points">
              <mxPoint x="1270" y="860" />
              <mxPoint x="1270" y="890" />
            </Array>
          </mxGeometry>
        </mxCell>
        <mxCell id="Rtv8AEi2oojKbHXFzOrV-125" value="3" style="rounded=0;whiteSpace=wrap;html=1;" vertex="1" parent="1">
          <mxGeometry x="1220" y="850" width="20" height="20" as="geometry" />
        </mxCell>
        <mxCell id="Rtv8AEi2oojKbHXFzOrV-126" style="edgeStyle=orthogonalEdgeStyle;rounded=0;orthogonalLoop=1;jettySize=auto;html=1;exitX=1;exitY=0.5;exitDx=0;exitDy=0;entryX=0;entryY=0.5;entryDx=0;entryDy=0;" edge="1" parent="1" source="Rtv8AEi2oojKbHXFzOrV-127" target="Rtv8AEi2oojKbHXFzOrV-129">
          <mxGeometry relative="1" as="geometry">
            <mxPoint x="1290" y="890" as="targetPoint" />
            <Array as="points">
              <mxPoint x="1270" y="925" />
              <mxPoint x="1270" y="890" />
            </Array>
          </mxGeometry>
        </mxCell>
        <mxCell id="Rtv8AEi2oojKbHXFzOrV-127" value="4" style="rounded=0;whiteSpace=wrap;html=1;" vertex="1" parent="1">
          <mxGeometry x="1220" y="915" width="20" height="20" as="geometry" />
        </mxCell>
        <mxCell id="Rtv8AEi2oojKbHXFzOrV-128" style="edgeStyle=orthogonalEdgeStyle;rounded=0;orthogonalLoop=1;jettySize=auto;html=1;exitX=1;exitY=0.5;exitDx=0;exitDy=0;entryX=0;entryY=0.5;entryDx=0;entryDy=0;" edge="1" parent="1" source="Rtv8AEi2oojKbHXFzOrV-129" target="Rtv8AEi2oojKbHXFzOrV-131">
          <mxGeometry relative="1" as="geometry" />
        </mxCell>
        <mxCell id="Rtv8AEi2oojKbHXFzOrV-129" value="5" style="rounded=0;whiteSpace=wrap;html=1;" vertex="1" parent="1">
          <mxGeometry x="1300" y="880" width="20" height="20" as="geometry" />
        </mxCell>
        <mxCell id="Rtv8AEi2oojKbHXFzOrV-130" style="edgeStyle=orthogonalEdgeStyle;rounded=0;orthogonalLoop=1;jettySize=auto;html=1;exitX=1;exitY=0.5;exitDx=0;exitDy=0;entryX=0;entryY=0.5;entryDx=0;entryDy=0;" edge="1" parent="1" source="Rtv8AEi2oojKbHXFzOrV-131" target="Rtv8AEi2oojKbHXFzOrV-133">
          <mxGeometry relative="1" as="geometry" />
        </mxCell>
        <mxCell id="Rtv8AEi2oojKbHXFzOrV-131" value="6" style="rounded=0;whiteSpace=wrap;html=1;" vertex="1" parent="1">
          <mxGeometry x="1360" y="880" width="20" height="20" as="geometry" />
        </mxCell>
        <mxCell id="Rtv8AEi2oojKbHXFzOrV-132" style="edgeStyle=orthogonalEdgeStyle;rounded=0;orthogonalLoop=1;jettySize=auto;html=1;exitX=1;exitY=0.5;exitDx=0;exitDy=0;entryX=0;entryY=0.5;entryDx=0;entryDy=0;" edge="1" parent="1" source="Rtv8AEi2oojKbHXFzOrV-133" target="Rtv8AEi2oojKbHXFzOrV-136">
          <mxGeometry relative="1" as="geometry">
            <mxPoint x="1465" y="890" as="targetPoint" />
          </mxGeometry>
        </mxCell>
        <mxCell id="Rtv8AEi2oojKbHXFzOrV-133" value="7" style="rounded=0;whiteSpace=wrap;html=1;" vertex="1" parent="1">
          <mxGeometry x="1420" y="880" width="20" height="20" as="geometry" />
        </mxCell>
        <mxCell id="Rtv8AEi2oojKbHXFzOrV-134" value="1" style="rounded=0;whiteSpace=wrap;html=1;strokeColor=none;fillColor=default;" vertex="1" parent="1">
          <mxGeometry x="1520" y="880" width="20" height="20" as="geometry" />
        </mxCell>
        <mxCell id="Rtv8AEi2oojKbHXFzOrV-135" style="edgeStyle=orthogonalEdgeStyle;rounded=0;orthogonalLoop=1;jettySize=auto;html=1;exitX=1;exitY=0.5;exitDx=0;exitDy=0;entryX=0;entryY=0.5;entryDx=0;entryDy=0;" edge="1" parent="1" source="Rtv8AEi2oojKbHXFzOrV-136" target="Rtv8AEi2oojKbHXFzOrV-134">
          <mxGeometry relative="1" as="geometry" />
        </mxCell>
        <mxCell id="Rtv8AEi2oojKbHXFzOrV-136" value="8" style="rounded=0;whiteSpace=wrap;html=1;" vertex="1" parent="1">
          <mxGeometry x="1470" y="880" width="20" height="20" as="geometry" />
        </mxCell>
        <mxCell id="Rtv8AEi2oojKbHXFzOrV-137" style="edgeStyle=orthogonalEdgeStyle;rounded=0;orthogonalLoop=1;jettySize=auto;html=1;exitX=0;exitY=0.5;exitDx=0;exitDy=0;entryX=0;entryY=0.5;entryDx=0;entryDy=0;strokeColor=default;dashed=1;" edge="1" parent="1" target="Rtv8AEi2oojKbHXFzOrV-139">
          <mxGeometry relative="1" as="geometry">
            <mxPoint x="1340" y="890" as="sourcePoint" />
            <Array as="points">
              <mxPoint x="1340" y="940" />
            </Array>
          </mxGeometry>
        </mxCell>
        <mxCell id="Rtv8AEi2oojKbHXFzOrV-138" style="edgeStyle=orthogonalEdgeStyle;rounded=0;orthogonalLoop=1;jettySize=auto;html=1;exitX=1;exitY=0.5;exitDx=0;exitDy=0;dashed=1;" edge="1" parent="1" source="Rtv8AEi2oojKbHXFzOrV-139">
          <mxGeometry relative="1" as="geometry">
            <mxPoint x="1400" y="890" as="targetPoint" />
            <Array as="points">
              <mxPoint x="1400" y="940" />
            </Array>
          </mxGeometry>
        </mxCell>
        <mxCell id="Rtv8AEi2oojKbHXFzOrV-139" value="9" style="rounded=0;whiteSpace=wrap;html=1;" vertex="1" parent="1">
          <mxGeometry x="1360" y="930" width="20" height="20" as="geometry" />
        </mxCell>
        <mxCell id="Rtv8AEi2oojKbHXFzOrV-140" style="edgeStyle=orthogonalEdgeStyle;rounded=0;orthogonalLoop=1;jettySize=auto;html=1;exitX=1;exitY=0.5;exitDx=0;exitDy=0;entryX=0;entryY=0.5;entryDx=0;entryDy=0;" edge="1" parent="1" source="Rtv8AEi2oojKbHXFzOrV-141" target="Rtv8AEi2oojKbHXFzOrV-143">
          <mxGeometry relative="1" as="geometry" />
        </mxCell>
        <mxCell id="Rtv8AEi2oojKbHXFzOrV-141" value="1" style="rounded=0;whiteSpace=wrap;html=1;strokeColor=none;fillColor=default;" vertex="1" parent="1">
          <mxGeometry x="1050" y="1000" width="20" height="20" as="geometry" />
        </mxCell>
        <mxCell id="Rtv8AEi2oojKbHXFzOrV-142" style="edgeStyle=orthogonalEdgeStyle;rounded=0;orthogonalLoop=1;jettySize=auto;html=1;exitX=1;exitY=0.5;exitDx=0;exitDy=0;entryX=0;entryY=0.5;entryDx=0;entryDy=0;" edge="1" parent="1" source="Rtv8AEi2oojKbHXFzOrV-143" target="Rtv8AEi2oojKbHXFzOrV-144">
          <mxGeometry relative="1" as="geometry" />
        </mxCell>
        <mxCell id="Rtv8AEi2oojKbHXFzOrV-143" value="1" style="rounded=0;whiteSpace=wrap;html=1;" vertex="1" parent="1">
          <mxGeometry x="1100" y="1000" width="20" height="20" as="geometry" />
        </mxCell>
        <mxCell id="Rtv8AEi2oojKbHXFzOrV-144" value="2" style="rounded=0;whiteSpace=wrap;html=1;" vertex="1" parent="1">
          <mxGeometry x="1150" y="1000" width="20" height="20" as="geometry" />
        </mxCell>
        <mxCell id="Rtv8AEi2oojKbHXFzOrV-145" style="edgeStyle=orthogonalEdgeStyle;rounded=0;orthogonalLoop=1;jettySize=auto;html=1;exitX=1;exitY=0.5;exitDx=0;exitDy=0;entryX=0;entryY=0.5;entryDx=0;entryDy=0;" edge="1" parent="1" source="Rtv8AEi2oojKbHXFzOrV-144" target="Rtv8AEi2oojKbHXFzOrV-148">
          <mxGeometry relative="1" as="geometry">
            <mxPoint x="1220" y="1010" as="sourcePoint" />
            <Array as="points">
              <mxPoint x="1200" y="1010" />
              <mxPoint x="1200" y="980" />
            </Array>
          </mxGeometry>
        </mxCell>
        <mxCell id="Rtv8AEi2oojKbHXFzOrV-146" style="edgeStyle=orthogonalEdgeStyle;rounded=0;orthogonalLoop=1;jettySize=auto;html=1;exitX=1;exitY=0.5;exitDx=0;exitDy=0;entryX=0;entryY=0.5;entryDx=0;entryDy=0;" edge="1" parent="1" source="Rtv8AEi2oojKbHXFzOrV-144" target="Rtv8AEi2oojKbHXFzOrV-150">
          <mxGeometry relative="1" as="geometry">
            <mxPoint x="1220" y="1010" as="sourcePoint" />
            <Array as="points">
              <mxPoint x="1200" y="1010" />
              <mxPoint x="1200" y="1045" />
            </Array>
          </mxGeometry>
        </mxCell>
        <mxCell id="Rtv8AEi2oojKbHXFzOrV-147" style="edgeStyle=orthogonalEdgeStyle;rounded=0;orthogonalLoop=1;jettySize=auto;html=1;exitX=1;exitY=0.5;exitDx=0;exitDy=0;entryX=0;entryY=0.5;entryDx=0;entryDy=0;" edge="1" parent="1" source="Rtv8AEi2oojKbHXFzOrV-148" target="Rtv8AEi2oojKbHXFzOrV-152">
          <mxGeometry relative="1" as="geometry">
            <Array as="points">
              <mxPoint x="1270" y="980" />
              <mxPoint x="1270" y="1010" />
            </Array>
          </mxGeometry>
        </mxCell>
        <mxCell id="Rtv8AEi2oojKbHXFzOrV-148" value="3" style="rounded=0;whiteSpace=wrap;html=1;" vertex="1" parent="1">
          <mxGeometry x="1220" y="970" width="20" height="20" as="geometry" />
        </mxCell>
        <mxCell id="Rtv8AEi2oojKbHXFzOrV-149" style="edgeStyle=orthogonalEdgeStyle;rounded=0;orthogonalLoop=1;jettySize=auto;html=1;exitX=1;exitY=0.5;exitDx=0;exitDy=0;entryX=0;entryY=0.5;entryDx=0;entryDy=0;" edge="1" parent="1" source="Rtv8AEi2oojKbHXFzOrV-150" target="Rtv8AEi2oojKbHXFzOrV-152">
          <mxGeometry relative="1" as="geometry">
            <mxPoint x="1290" y="1010" as="targetPoint" />
            <Array as="points">
              <mxPoint x="1270" y="1045" />
              <mxPoint x="1270" y="1010" />
            </Array>
          </mxGeometry>
        </mxCell>
        <mxCell id="Rtv8AEi2oojKbHXFzOrV-150" value="4" style="rounded=0;whiteSpace=wrap;html=1;" vertex="1" parent="1">
          <mxGeometry x="1220" y="1035" width="20" height="20" as="geometry" />
        </mxCell>
        <mxCell id="Rtv8AEi2oojKbHXFzOrV-151" style="edgeStyle=orthogonalEdgeStyle;rounded=0;orthogonalLoop=1;jettySize=auto;html=1;exitX=1;exitY=0.5;exitDx=0;exitDy=0;entryX=0;entryY=0.5;entryDx=0;entryDy=0;" edge="1" parent="1" source="Rtv8AEi2oojKbHXFzOrV-152" target="Rtv8AEi2oojKbHXFzOrV-154">
          <mxGeometry relative="1" as="geometry" />
        </mxCell>
        <mxCell id="Rtv8AEi2oojKbHXFzOrV-152" value="5" style="rounded=0;whiteSpace=wrap;html=1;" vertex="1" parent="1">
          <mxGeometry x="1300" y="1000" width="20" height="20" as="geometry" />
        </mxCell>
        <mxCell id="Rtv8AEi2oojKbHXFzOrV-153" style="edgeStyle=orthogonalEdgeStyle;rounded=0;orthogonalLoop=1;jettySize=auto;html=1;exitX=1;exitY=0.5;exitDx=0;exitDy=0;entryX=0;entryY=0.5;entryDx=0;entryDy=0;" edge="1" parent="1" source="Rtv8AEi2oojKbHXFzOrV-154" target="Rtv8AEi2oojKbHXFzOrV-156">
          <mxGeometry relative="1" as="geometry" />
        </mxCell>
        <mxCell id="Rtv8AEi2oojKbHXFzOrV-154" value="6" style="rounded=0;whiteSpace=wrap;html=1;" vertex="1" parent="1">
          <mxGeometry x="1350" y="1000" width="20" height="20" as="geometry" />
        </mxCell>
        <mxCell id="Rtv8AEi2oojKbHXFzOrV-155" style="edgeStyle=orthogonalEdgeStyle;rounded=0;orthogonalLoop=1;jettySize=auto;html=1;exitX=1;exitY=0.5;exitDx=0;exitDy=0;entryX=0;entryY=0.5;entryDx=0;entryDy=0;" edge="1" parent="1" source="Rtv8AEi2oojKbHXFzOrV-156" target="Rtv8AEi2oojKbHXFzOrV-159">
          <mxGeometry relative="1" as="geometry">
            <mxPoint x="1465" y="1010" as="targetPoint" />
          </mxGeometry>
        </mxCell>
        <mxCell id="Rtv8AEi2oojKbHXFzOrV-156" value="7" style="rounded=0;whiteSpace=wrap;html=1;" vertex="1" parent="1">
          <mxGeometry x="1410" y="1000" width="20" height="20" as="geometry" />
        </mxCell>
        <mxCell id="Rtv8AEi2oojKbHXFzOrV-157" value="1" style="rounded=0;whiteSpace=wrap;html=1;strokeColor=none;fillColor=default;" vertex="1" parent="1">
          <mxGeometry x="1520" y="1000" width="20" height="20" as="geometry" />
        </mxCell>
        <mxCell id="Rtv8AEi2oojKbHXFzOrV-158" style="edgeStyle=orthogonalEdgeStyle;rounded=0;orthogonalLoop=1;jettySize=auto;html=1;exitX=1;exitY=0.5;exitDx=0;exitDy=0;entryX=0;entryY=0.5;entryDx=0;entryDy=0;" edge="1" parent="1" source="Rtv8AEi2oojKbHXFzOrV-159" target="Rtv8AEi2oojKbHXFzOrV-157">
          <mxGeometry relative="1" as="geometry" />
        </mxCell>
        <mxCell id="Rtv8AEi2oojKbHXFzOrV-159" value="8" style="rounded=0;whiteSpace=wrap;html=1;" vertex="1" parent="1">
          <mxGeometry x="1470" y="1000" width="20" height="20" as="geometry" />
        </mxCell>
        <mxCell id="Rtv8AEi2oojKbHXFzOrV-160" style="edgeStyle=orthogonalEdgeStyle;rounded=0;orthogonalLoop=1;jettySize=auto;html=1;exitX=0;exitY=0.5;exitDx=0;exitDy=0;entryX=0;entryY=0.5;entryDx=0;entryDy=0;strokeColor=default;dashed=1;" edge="1" parent="1" target="Rtv8AEi2oojKbHXFzOrV-162">
          <mxGeometry relative="1" as="geometry">
            <mxPoint x="1390" y="1010" as="sourcePoint" />
            <Array as="points">
              <mxPoint x="1390" y="1060" />
            </Array>
          </mxGeometry>
        </mxCell>
        <mxCell id="Rtv8AEi2oojKbHXFzOrV-161" style="edgeStyle=orthogonalEdgeStyle;rounded=0;orthogonalLoop=1;jettySize=auto;html=1;exitX=1;exitY=0.5;exitDx=0;exitDy=0;dashed=1;" edge="1" parent="1" source="Rtv8AEi2oojKbHXFzOrV-162">
          <mxGeometry relative="1" as="geometry">
            <mxPoint x="1450" y="1010" as="targetPoint" />
            <Array as="points">
              <mxPoint x="1450" y="1060" />
            </Array>
          </mxGeometry>
        </mxCell>
        <mxCell id="Rtv8AEi2oojKbHXFzOrV-162" value="9" style="rounded=0;whiteSpace=wrap;html=1;" vertex="1" parent="1">
          <mxGeometry x="1410" y="1050" width="20" height="20" as="geometry" />
        </mxCell>
        <mxCell id="Rtv8AEi2oojKbHXFzOrV-163" style="edgeStyle=orthogonalEdgeStyle;rounded=0;orthogonalLoop=1;jettySize=auto;html=1;exitX=1;exitY=0.5;exitDx=0;exitDy=0;entryX=0;entryY=0.5;entryDx=0;entryDy=0;" edge="1" parent="1" source="Rtv8AEi2oojKbHXFzOrV-164" target="Rtv8AEi2oojKbHXFzOrV-166">
          <mxGeometry relative="1" as="geometry" />
        </mxCell>
        <mxCell id="Rtv8AEi2oojKbHXFzOrV-164" value="1" style="rounded=0;whiteSpace=wrap;html=1;strokeColor=none;fillColor=default;" vertex="1" parent="1">
          <mxGeometry x="1060" y="1120" width="20" height="20" as="geometry" />
        </mxCell>
        <mxCell id="Rtv8AEi2oojKbHXFzOrV-165" style="edgeStyle=orthogonalEdgeStyle;rounded=0;orthogonalLoop=1;jettySize=auto;html=1;exitX=1;exitY=0.5;exitDx=0;exitDy=0;entryX=0;entryY=0.5;entryDx=0;entryDy=0;" edge="1" parent="1" source="Rtv8AEi2oojKbHXFzOrV-166" target="Rtv8AEi2oojKbHXFzOrV-167">
          <mxGeometry relative="1" as="geometry" />
        </mxCell>
        <mxCell id="Rtv8AEi2oojKbHXFzOrV-166" value="1" style="rounded=0;whiteSpace=wrap;html=1;" vertex="1" parent="1">
          <mxGeometry x="1110" y="1120" width="20" height="20" as="geometry" />
        </mxCell>
        <mxCell id="Rtv8AEi2oojKbHXFzOrV-167" value="2" style="rounded=0;whiteSpace=wrap;html=1;" vertex="1" parent="1">
          <mxGeometry x="1160" y="1120" width="20" height="20" as="geometry" />
        </mxCell>
        <mxCell id="Rtv8AEi2oojKbHXFzOrV-168" style="edgeStyle=orthogonalEdgeStyle;rounded=0;orthogonalLoop=1;jettySize=auto;html=1;exitX=1;exitY=0.5;exitDx=0;exitDy=0;entryX=0;entryY=0.5;entryDx=0;entryDy=0;" edge="1" parent="1" source="Rtv8AEi2oojKbHXFzOrV-167" target="Rtv8AEi2oojKbHXFzOrV-171">
          <mxGeometry relative="1" as="geometry">
            <mxPoint x="1230" y="1130" as="sourcePoint" />
            <Array as="points">
              <mxPoint x="1210" y="1130" />
              <mxPoint x="1210" y="1100" />
            </Array>
          </mxGeometry>
        </mxCell>
        <mxCell id="Rtv8AEi2oojKbHXFzOrV-169" style="edgeStyle=orthogonalEdgeStyle;rounded=0;orthogonalLoop=1;jettySize=auto;html=1;exitX=1;exitY=0.5;exitDx=0;exitDy=0;entryX=0;entryY=0.5;entryDx=0;entryDy=0;" edge="1" parent="1" source="Rtv8AEi2oojKbHXFzOrV-167" target="Rtv8AEi2oojKbHXFzOrV-173">
          <mxGeometry relative="1" as="geometry">
            <mxPoint x="1230" y="1130" as="sourcePoint" />
            <Array as="points">
              <mxPoint x="1210" y="1130" />
              <mxPoint x="1210" y="1165" />
            </Array>
          </mxGeometry>
        </mxCell>
        <mxCell id="Rtv8AEi2oojKbHXFzOrV-170" style="edgeStyle=orthogonalEdgeStyle;rounded=0;orthogonalLoop=1;jettySize=auto;html=1;exitX=1;exitY=0.5;exitDx=0;exitDy=0;entryX=0;entryY=0.5;entryDx=0;entryDy=0;" edge="1" parent="1" source="Rtv8AEi2oojKbHXFzOrV-171" target="Rtv8AEi2oojKbHXFzOrV-175">
          <mxGeometry relative="1" as="geometry">
            <Array as="points">
              <mxPoint x="1280" y="1100" />
              <mxPoint x="1280" y="1130" />
            </Array>
          </mxGeometry>
        </mxCell>
        <mxCell id="Rtv8AEi2oojKbHXFzOrV-171" value="3" style="rounded=0;whiteSpace=wrap;html=1;" vertex="1" parent="1">
          <mxGeometry x="1230" y="1090" width="20" height="20" as="geometry" />
        </mxCell>
        <mxCell id="Rtv8AEi2oojKbHXFzOrV-172" style="edgeStyle=orthogonalEdgeStyle;rounded=0;orthogonalLoop=1;jettySize=auto;html=1;exitX=1;exitY=0.5;exitDx=0;exitDy=0;entryX=0;entryY=0.5;entryDx=0;entryDy=0;" edge="1" parent="1" source="Rtv8AEi2oojKbHXFzOrV-173" target="Rtv8AEi2oojKbHXFzOrV-175">
          <mxGeometry relative="1" as="geometry">
            <mxPoint x="1300" y="1130" as="targetPoint" />
            <Array as="points">
              <mxPoint x="1280" y="1165" />
              <mxPoint x="1280" y="1130" />
            </Array>
          </mxGeometry>
        </mxCell>
        <mxCell id="Rtv8AEi2oojKbHXFzOrV-173" value="4" style="rounded=0;whiteSpace=wrap;html=1;" vertex="1" parent="1">
          <mxGeometry x="1230" y="1155" width="20" height="20" as="geometry" />
        </mxCell>
        <mxCell id="Rtv8AEi2oojKbHXFzOrV-174" style="edgeStyle=orthogonalEdgeStyle;rounded=0;orthogonalLoop=1;jettySize=auto;html=1;exitX=1;exitY=0.5;exitDx=0;exitDy=0;entryX=0;entryY=0.5;entryDx=0;entryDy=0;" edge="1" parent="1" source="Rtv8AEi2oojKbHXFzOrV-175" target="Rtv8AEi2oojKbHXFzOrV-177">
          <mxGeometry relative="1" as="geometry" />
        </mxCell>
        <mxCell id="Rtv8AEi2oojKbHXFzOrV-175" value="5" style="rounded=0;whiteSpace=wrap;html=1;" vertex="1" parent="1">
          <mxGeometry x="1310" y="1120" width="20" height="20" as="geometry" />
        </mxCell>
        <mxCell id="Rtv8AEi2oojKbHXFzOrV-176" style="edgeStyle=orthogonalEdgeStyle;rounded=0;orthogonalLoop=1;jettySize=auto;html=1;exitX=1;exitY=0.5;exitDx=0;exitDy=0;entryX=0;entryY=0.5;entryDx=0;entryDy=0;" edge="1" parent="1" source="Rtv8AEi2oojKbHXFzOrV-177" target="Rtv8AEi2oojKbHXFzOrV-179">
          <mxGeometry relative="1" as="geometry" />
        </mxCell>
        <mxCell id="Rtv8AEi2oojKbHXFzOrV-177" value="6" style="rounded=0;whiteSpace=wrap;html=1;" vertex="1" parent="1">
          <mxGeometry x="1360" y="1120" width="20" height="20" as="geometry" />
        </mxCell>
        <mxCell id="Rtv8AEi2oojKbHXFzOrV-178" style="edgeStyle=orthogonalEdgeStyle;rounded=0;orthogonalLoop=1;jettySize=auto;html=1;exitX=1;exitY=0.5;exitDx=0;exitDy=0;entryX=0;entryY=0.5;entryDx=0;entryDy=0;" edge="1" parent="1" source="Rtv8AEi2oojKbHXFzOrV-179" target="Rtv8AEi2oojKbHXFzOrV-182">
          <mxGeometry relative="1" as="geometry">
            <mxPoint x="1475" y="1130" as="targetPoint" />
          </mxGeometry>
        </mxCell>
        <mxCell id="Rtv8AEi2oojKbHXFzOrV-179" value="7" style="rounded=0;whiteSpace=wrap;html=1;" vertex="1" parent="1">
          <mxGeometry x="1410" y="1120" width="20" height="20" as="geometry" />
        </mxCell>
        <mxCell id="Rtv8AEi2oojKbHXFzOrV-180" value="1" style="rounded=0;whiteSpace=wrap;html=1;strokeColor=none;fillColor=default;" vertex="1" parent="1">
          <mxGeometry x="1520" y="1120" width="20" height="20" as="geometry" />
        </mxCell>
        <mxCell id="Rtv8AEi2oojKbHXFzOrV-181" style="edgeStyle=orthogonalEdgeStyle;rounded=0;orthogonalLoop=1;jettySize=auto;html=1;exitX=1;exitY=0.5;exitDx=0;exitDy=0;entryX=0;entryY=0.5;entryDx=0;entryDy=0;" edge="1" parent="1" source="Rtv8AEi2oojKbHXFzOrV-182" target="Rtv8AEi2oojKbHXFzOrV-180">
          <mxGeometry relative="1" as="geometry" />
        </mxCell>
        <mxCell id="Rtv8AEi2oojKbHXFzOrV-182" value="8" style="rounded=0;whiteSpace=wrap;html=1;" vertex="1" parent="1">
          <mxGeometry x="1460" y="1120" width="20" height="20" as="geometry" />
        </mxCell>
        <mxCell id="Rtv8AEi2oojKbHXFzOrV-183" style="edgeStyle=orthogonalEdgeStyle;rounded=0;orthogonalLoop=1;jettySize=auto;html=1;exitX=0;exitY=0.5;exitDx=0;exitDy=0;entryX=0;entryY=0.5;entryDx=0;entryDy=0;strokeColor=default;dashed=1;" edge="1" parent="1" target="Rtv8AEi2oojKbHXFzOrV-185">
          <mxGeometry relative="1" as="geometry">
            <mxPoint x="1440" y="1130" as="sourcePoint" />
            <Array as="points">
              <mxPoint x="1440" y="1180" />
            </Array>
          </mxGeometry>
        </mxCell>
        <mxCell id="Rtv8AEi2oojKbHXFzOrV-184" style="edgeStyle=orthogonalEdgeStyle;rounded=0;orthogonalLoop=1;jettySize=auto;html=1;exitX=1;exitY=0.5;exitDx=0;exitDy=0;dashed=1;" edge="1" parent="1" source="Rtv8AEi2oojKbHXFzOrV-185">
          <mxGeometry relative="1" as="geometry">
            <mxPoint x="1500" y="1130" as="targetPoint" />
            <Array as="points">
              <mxPoint x="1500" y="1180" />
            </Array>
          </mxGeometry>
        </mxCell>
        <mxCell id="Rtv8AEi2oojKbHXFzOrV-185" value="9" style="rounded=0;whiteSpace=wrap;html=1;" vertex="1" parent="1">
          <mxGeometry x="1460" y="1170" width="20" height="20" as="geometry" />
        </mxCell>
      </root>
    </mxGraphModel>
  </diagram>
</mxfile>
